<svg width="163" height="90" viewBox="0 0 163 90" fill="none" xmlns="http://www.w3.org/2000/svg">
<path fill-rule="evenodd" clip-rule="evenodd" d="M65.8047 15.6872L54.6615 30.0141L38.9105 30.0141C37.5298 30.0141 36.4105 28.8949 36.4105 27.5141C36.4105 26.1334 37.5298 25.0141 38.9105 25.0141L52.2161 25.0141L59.5635 15.5675L52.1561 5.25L38.9105 5.25C37.5298 5.25 36.4105 4.13071 36.4105 2.75C36.4105 1.36929 37.5298 0.250001 38.9105 0.250001L54.7215 0.25L65.8047 15.6872Z" fill="currentColor"/>
<path fill-rule="evenodd" clip-rule="evenodd" d="M22.5635 22.291L33.7066 36.6179L49.4576 36.6179C50.8384 36.6179 51.9576 35.4986 51.9576 34.1179C51.9576 32.7372 50.8384 31.6179 49.4576 31.6179L36.1521 31.6179L28.8046 22.1712L36.2121 11.8538L49.4576 11.8538C50.8384 11.8538 51.9576 10.7345 51.9576 9.35376C51.9576 7.97305 50.8384 6.85376 49.4576 6.85376L33.6466 6.85376L22.5635 22.291Z" fill="#4E4E4E"/>
<path d="M16.844 44.118C19.844 44.118 22.184 45.066 23.864 46.962C25.544 48.834 26.384 51.51 26.384 54.99L26.384 69.75H20.552L20.552 55.17C20.552 53.154 20.072 51.642 19.112 50.634C18.176 49.602 16.868 49.086 15.188 49.086C13.412 49.086 11.984 49.638 10.904 50.742C9.848 51.822 9.32 53.43 9.32 55.566L9.32 69.75H3.488L3.488 44.55H9.14V47.61C10.004 46.458 11.084 45.594 12.38 45.018C13.676 44.418 15.164 44.118 16.844 44.118ZM41.5003 65.538C42.5083 65.538 43.3963 65.394 44.1643 65.106C44.9563 64.794 45.6883 64.314 46.3603 63.666L49.3483 66.906C47.5243 68.994 44.8603 70.038 41.3563 70.038C39.1723 70.038 37.2403 69.618 35.5603 68.778C33.8803 67.914 32.5843 66.726 31.6723 65.214C30.7603 63.702 30.3043 61.986 30.3043 60.066C30.3043 58.17 30.7483 56.466 31.6363 54.954C32.5483 53.418 33.7843 52.23 35.3443 51.39C36.9283 50.526 38.7043 50.094 40.6723 50.094C42.5203 50.094 44.2003 50.49 45.7123 51.282C47.2243 52.05 48.4243 53.178 49.3123 54.666C50.2243 56.13 50.6803 57.87 50.6803 59.886L36.3523 62.658C36.7603 63.618 37.3963 64.338 38.2603 64.818C39.1483 65.298 40.2283 65.538 41.5003 65.538ZM40.6723 54.342C39.2563 54.342 38.1043 54.798 37.2163 55.71C36.3283 56.622 35.8603 57.882 35.8123 59.49L45.2443 57.654C44.9803 56.646 44.4403 55.842 43.6243 55.242C42.8083 54.642 41.8243 54.342 40.6723 54.342ZM66.2399 69.75L61.9919 63.81L57.5999 69.75H51.4799L58.9319 59.994L51.7319 50.382H58.0319L62.1359 56.034L66.3479 50.382H72.3239L65.1239 59.85L72.6119 69.75H66.2399Z" fill="#4E4E4E"/>
<path d="M88.036 44.55C91.252 44.55 93.772 45.318 95.596 46.854C97.42 48.39 98.332 50.502 98.332 53.19C98.332 55.878 97.42 57.99 95.596 59.526C93.772 61.038 91.252 61.794 88.036 61.794H81.268V69.75H78.604V44.55H88.036ZM87.964 59.454C90.46 59.454 92.368 58.914 93.688 57.834C95.008 56.73 95.668 55.182 95.668 53.19C95.668 51.15 95.008 49.59 93.688 48.51C92.368 47.406 90.46 46.854 87.964 46.854H81.268V59.454H87.964ZM105.508 54.522C106.108 53.25 106.996 52.29 108.172 51.642C109.372 50.994 110.848 50.67 112.6 50.67V53.154L111.988 53.118C109.996 53.118 108.436 53.73 107.308 54.954C106.18 56.178 105.616 57.894 105.616 60.102V69.75H103.06V50.814H105.508V54.522ZM117.228 50.814H119.784V69.75H117.228V50.814ZM118.524 46.674C117.996 46.674 117.552 46.494 117.192 46.134C116.832 45.774 116.652 45.342 116.652 44.838C116.652 44.358 116.832 43.938 117.192 43.578C117.552 43.218 117.996 43.038 118.524 43.038C119.052 43.038 119.496 43.218 119.856 43.578C120.216 43.914 120.396 44.322 120.396 44.802C120.396 45.33 120.216 45.774 119.856 46.134C119.496 46.494 119.052 46.674 118.524 46.674ZM136.544 50.67C138.92 50.67 140.804 51.366 142.196 52.758C143.612 54.126 144.32 56.13 144.32 58.77V69.75H141.764V59.022C141.764 57.054 141.272 55.554 140.288 54.522C139.304 53.49 137.9 52.974 136.076 52.974C134.036 52.974 132.416 53.586 131.216 54.81C130.04 56.01 129.452 57.678 129.452 59.814V69.75H126.896V50.814H129.344V54.306C130.04 53.154 131 52.266 132.224 51.642C133.472 50.994 134.912 50.67 136.544 50.67ZM160.583 68.598C160.103 69.03 159.515 69.366 158.819 69.606C158.123 69.822 157.391 69.93 156.623 69.93C154.847 69.93 153.479 69.45 152.519 68.49C151.559 67.53 151.079 66.174 151.079 64.422V46.674H153.635V50.814L159.359 50.814V52.974L153.635 52.974V64.278C153.635 65.406 153.911 66.27 154.463 66.87C155.015 67.446 155.819 67.734 156.875 67.734C158.027 67.734 158.963 67.41 159.683 66.762L160.583 68.598Z" fill="currentColor"/>
<path d="M33.911 82.55H34.763V86.75H33.983V86.042C33.663 86.298 33.287 86.494 32.855 86.63C32.431 86.758 31.975 86.822 31.487 86.822C30.735 86.822 30.035 86.654 29.387 86.318C28.747 85.982 28.231 85.494 27.839 84.854C27.447 84.214 27.251 83.454 27.251 82.574C27.251 81.758 27.443 81.026 27.827 80.378C28.211 79.722 28.739 79.21 29.411 78.842C30.083 78.466 30.843 78.278 31.691 78.278C32.331 78.278 32.919 78.382 33.455 78.59C33.991 78.79 34.443 79.09 34.811 79.49L34.259 80.054C33.595 79.398 32.751 79.07 31.727 79.07C31.047 79.07 30.431 79.222 29.879 79.526C29.335 79.822 28.907 80.238 28.595 80.774C28.283 81.31 28.127 81.91 28.127 82.574C28.127 83.286 28.283 83.906 28.595 84.434C28.915 84.954 29.335 85.354 29.855 85.634C30.383 85.906 30.947 86.042 31.547 86.042C31.987 86.042 32.411 85.97 32.819 85.826C33.235 85.674 33.599 85.446 33.911 85.142V82.55ZM39.7962 86.054C40.1882 86.054 40.5482 85.986 40.8762 85.85C41.2122 85.706 41.4962 85.498 41.7282 85.226L42.2082 85.778C41.9282 86.114 41.5802 86.37 41.1642 86.546C40.7482 86.722 40.2882 86.81 39.7842 86.81C39.1362 86.81 38.5602 86.674 38.0562 86.402C37.5522 86.122 37.1602 85.738 36.8802 85.25C36.6002 84.762 36.4602 84.21 36.4602 83.594C36.4602 82.978 36.5922 82.426 36.8562 81.938C37.1282 81.45 37.5002 81.07 37.9722 80.798C38.4442 80.526 38.9802 80.39 39.5802 80.39C40.1402 80.39 40.6442 80.518 41.0922 80.774C41.5482 81.03 41.9082 81.386 42.1722 81.842C42.4442 82.298 42.5882 82.818 42.6042 83.402L37.4202 84.41C37.5802 84.922 37.8682 85.326 38.2842 85.622C38.7082 85.91 39.2122 86.054 39.7962 86.054ZM39.5802 81.122C39.1402 81.122 38.7442 81.226 38.3922 81.434C38.0482 81.634 37.7762 81.918 37.5762 82.286C37.3842 82.646 37.2882 83.062 37.2882 83.534C37.2882 83.654 37.2922 83.742 37.3002 83.798L41.7522 82.934C41.6562 82.406 41.4122 81.974 41.0202 81.638C40.6282 81.294 40.1482 81.122 39.5802 81.122ZM46.0304 86.81C45.5184 86.81 45.0264 86.738 44.5544 86.594C44.0904 86.442 43.7264 86.254 43.4624 86.03L43.8464 85.358C44.1104 85.566 44.4424 85.738 44.8424 85.874C45.2424 86.002 45.6584 86.066 46.0904 86.066C46.6664 86.066 47.0904 85.978 47.3624 85.802C47.6424 85.618 47.7824 85.362 47.7824 85.034C47.7824 84.802 47.7064 84.622 47.5544 84.494C47.4024 84.358 47.2104 84.258 46.9784 84.194C46.7464 84.122 46.4384 84.054 46.0544 83.99C45.5424 83.894 45.1304 83.798 44.8184 83.702C44.5064 83.598 44.2384 83.426 44.0144 83.186C43.7984 82.946 43.6904 82.614 43.6904 82.19C43.6904 81.662 43.9104 81.23 44.3504 80.894C44.7904 80.558 45.4024 80.39 46.1864 80.39C46.5944 80.39 47.0024 80.446 47.4104 80.558C47.8184 80.662 48.1544 80.802 48.4184 80.978L48.0464 81.662C47.5264 81.302 46.9064 81.122 46.1864 81.122C45.6424 81.122 45.2304 81.218 44.9504 81.41C44.6784 81.602 44.5424 81.854 44.5424 82.166C44.5424 82.406 44.6184 82.598 44.7704 82.742C44.9304 82.886 45.1264 82.994 45.3584 83.066C45.5904 83.13 45.9104 83.198 46.3184 83.27C46.8224 83.366 47.2264 83.462 47.5304 83.558C47.8344 83.654 48.0944 83.818 48.3104 84.05C48.5264 84.282 48.6344 84.602 48.6344 85.01C48.6344 85.562 48.4024 86.002 47.9384 86.33C47.4824 86.65 46.8464 86.81 46.0304 86.81ZM53.3175 86.366C53.1575 86.51 52.9615 86.622 52.7295 86.702C52.4975 86.774 52.2535 86.81 51.9975 86.81C51.4055 86.81 50.9495 86.65 50.6295 86.33C50.3095 86.01 50.1495 85.558 50.1495 84.974V79.058H51.0015V80.438H52.9095V81.158H51.0015V84.926C51.0015 85.302 51.0935 85.59 51.2775 85.79C51.4615 85.982 51.7295 86.078 52.0815 86.078C52.4655 86.078 52.7775 85.97 53.0175 85.754L53.3175 86.366ZM60.3992 80.438V86.75H59.5832V85.502C59.3272 85.926 58.9872 86.25 58.5632 86.474C58.1472 86.698 57.6752 86.81 57.1472 86.81C56.5552 86.81 56.0192 86.674 55.5392 86.402C55.0592 86.13 54.6832 85.75 54.4112 85.262C54.1392 84.774 54.0032 84.218 54.0032 83.594C54.0032 82.97 54.1392 82.414 54.4112 81.926C54.6832 81.438 55.0592 81.062 55.5392 80.798C56.0192 80.526 56.5552 80.39 57.1472 80.39C57.6592 80.39 58.1192 80.498 58.5272 80.714C58.9432 80.922 59.2832 81.23 59.5472 81.638V80.438H60.3992ZM57.2192 86.054C57.6592 86.054 58.0552 85.954 58.4072 85.754C58.7672 85.546 59.0472 85.254 59.2472 84.878C59.4552 84.502 59.5592 84.074 59.5592 83.594C59.5592 83.114 59.4552 82.686 59.2472 82.31C59.0472 81.934 58.7672 81.646 58.4072 81.446C58.0552 81.238 57.6592 81.134 57.2192 81.134C56.7712 81.134 56.3672 81.238 56.0072 81.446C55.6552 81.646 55.3752 81.934 55.1672 82.31C54.9672 82.686 54.8672 83.114 54.8672 83.594C54.8672 84.074 54.9672 84.502 55.1672 84.878C55.3752 85.254 55.6552 85.546 56.0072 85.754C56.3672 85.954 56.7712 86.054 57.2192 86.054ZM58.2152 79.382C58.0312 79.382 57.8672 79.342 57.7232 79.262C57.5792 79.174 57.4232 79.054 57.2552 78.902C57.1112 78.782 56.9952 78.698 56.9072 78.65C56.8272 78.594 56.7392 78.566 56.6432 78.566C56.4592 78.566 56.3112 78.634 56.1992 78.77C56.0872 78.906 56.0272 79.094 56.0192 79.334H55.5032C55.5192 78.934 55.6232 78.614 55.8152 78.374C56.0072 78.134 56.2632 78.014 56.5832 78.014C56.7672 78.014 56.9272 78.054 57.0632 78.134C57.2072 78.214 57.3712 78.334 57.5552 78.494C57.6832 78.606 57.7912 78.69 57.8792 78.746C57.9672 78.802 58.0592 78.83 58.1552 78.83C58.3312 78.83 58.4752 78.766 58.5872 78.638C58.6992 78.502 58.7632 78.318 58.7792 78.086H59.2952C59.2792 78.478 59.1752 78.794 58.9832 79.034C58.7912 79.266 58.5352 79.382 58.2152 79.382ZM65.352 86.81C64.744 86.81 64.196 86.674 63.708 86.402C63.22 86.122 62.836 85.738 62.556 85.25C62.276 84.762 62.136 84.21 62.136 83.594C62.136 82.978 62.276 82.426 62.556 81.938C62.836 81.45 63.22 81.07 63.708 80.798C64.196 80.526 64.744 80.39 65.352 80.39C65.96 80.39 66.508 80.526 66.996 80.798C67.484 81.07 67.864 81.45 68.136 81.938C68.416 82.426 68.556 82.978 68.556 83.594C68.556 84.21 68.416 84.762 68.136 85.25C67.864 85.738 67.484 86.122 66.996 86.402C66.508 86.674 65.96 86.81 65.352 86.81ZM65.352 86.054C65.8 86.054 66.2 85.954 66.552 85.754C66.912 85.546 67.192 85.254 67.392 84.878C67.592 84.502 67.692 84.074 67.692 83.594C67.692 83.114 67.592 82.686 67.392 82.31C67.192 81.934 66.912 81.646 66.552 81.446C66.2 81.238 65.8 81.134 65.352 81.134C64.904 81.134 64.5 81.238 64.14 81.446C63.788 81.646 63.508 81.934 63.3 82.31C63.1 82.686 63 83.114 63 83.594C63 84.074 63.1 84.502 63.3 84.878C63.508 85.254 63.788 85.546 64.14 85.754C64.5 85.954 64.904 86.054 65.352 86.054ZM79.628 86.882L78.464 85.682C77.752 86.442 76.816 86.822 75.656 86.822C75.112 86.822 74.624 86.734 74.192 86.558C73.768 86.374 73.436 86.122 73.196 85.802C72.956 85.474 72.836 85.102 72.836 84.686C72.836 84.182 72.996 83.73 73.316 83.33C73.636 82.93 74.18 82.51 74.948 82.07C74.548 81.654 74.272 81.302 74.12 81.014C73.968 80.718 73.892 80.406 73.892 80.078C73.892 79.542 74.084 79.11 74.468 78.782C74.852 78.454 75.368 78.29 76.016 78.29C76.616 78.29 77.092 78.438 77.444 78.734C77.796 79.03 77.972 79.438 77.972 79.958C77.972 80.374 77.832 80.75 77.552 81.086C77.272 81.414 76.788 81.778 76.1 82.178L78.404 84.554C78.66 84.098 78.848 83.558 78.968 82.934L79.664 83.15C79.512 83.902 79.264 84.546 78.92 85.082L80.12 86.318L79.628 86.882ZM76.016 78.926C75.6 78.926 75.272 79.03 75.032 79.238C74.8 79.446 74.684 79.722 74.684 80.066C74.684 80.314 74.748 80.55 74.876 80.774C75.004 80.998 75.256 81.302 75.632 81.686C76.24 81.334 76.66 81.034 76.892 80.786C77.124 80.538 77.24 80.266 77.24 79.97C77.24 79.65 77.132 79.398 76.916 79.214C76.7 79.022 76.4 78.926 76.016 78.926ZM75.704 86.114C76.632 86.114 77.384 85.798 77.96 85.166L75.428 82.562C74.764 82.938 74.304 83.278 74.048 83.582C73.8 83.886 73.676 84.226 73.676 84.602C73.676 85.058 73.86 85.426 74.228 85.706C74.604 85.978 75.096 86.114 75.704 86.114ZM88.48 78.278C89.488 78.278 90.276 78.578 90.844 79.178C91.42 79.778 91.708 80.634 91.708 81.746V86.75H90.82V81.77C90.82 80.882 90.6 80.21 90.16 79.754C89.72 79.298 89.104 79.07 88.312 79.07C87.48 79.07 86.832 79.314 86.368 79.802C85.904 80.282 85.672 81.006 85.672 81.974V86.75H84.784V78.35H85.636V79.766C86.172 78.774 87.12 78.278 88.48 78.278ZM96.89 86.054C97.282 86.054 97.642 85.986 97.97 85.85C98.306 85.706 98.59 85.498 98.822 85.226L99.302 85.778C99.022 86.114 98.674 86.37 98.258 86.546C97.842 86.722 97.382 86.81 96.878 86.81C96.23 86.81 95.654 86.674 95.15 86.402C94.646 86.122 94.254 85.738 93.974 85.25C93.694 84.762 93.554 84.21 93.554 83.594C93.554 82.978 93.686 82.426 93.95 81.938C94.222 81.45 94.594 81.07 95.066 80.798C95.538 80.526 96.074 80.39 96.674 80.39C97.234 80.39 97.738 80.518 98.186 80.774C98.642 81.03 99.002 81.386 99.266 81.842C99.538 82.298 99.682 82.818 99.698 83.402L94.514 84.41C94.674 84.922 94.962 85.326 95.378 85.622C95.802 85.91 96.306 86.054 96.89 86.054ZM96.674 81.122C96.234 81.122 95.838 81.226 95.486 81.434C95.142 81.634 94.87 81.918 94.67 82.286C94.478 82.646 94.382 83.062 94.382 83.534C94.382 83.654 94.386 83.742 94.394 83.798L98.846 82.934C98.75 82.406 98.506 81.974 98.114 81.638C97.722 81.294 97.242 81.122 96.674 81.122ZM107.276 80.438V85.982C107.276 87.054 107.012 87.846 106.484 88.358C105.964 88.878 105.176 89.138 104.12 89.138C103.536 89.138 102.98 89.05 102.452 88.874C101.932 88.706 101.508 88.47 101.18 88.166L101.612 87.518C101.916 87.79 102.284 88.002 102.716 88.154C103.156 88.306 103.616 88.382 104.096 88.382C104.896 88.382 105.484 88.194 105.86 87.818C106.236 87.45 106.424 86.874 106.424 86.09V85.286C106.16 85.686 105.812 85.99 105.38 86.198C104.956 86.406 104.484 86.51 103.964 86.51C103.372 86.51 102.832 86.382 102.344 86.126C101.864 85.862 101.484 85.498 101.204 85.034C100.932 84.562 100.796 84.03 100.796 83.438C100.796 82.846 100.932 82.318 101.204 81.854C101.484 81.39 101.864 81.03 102.344 80.774C102.824 80.518 103.364 80.39 103.964 80.39C104.5 80.39 104.984 80.498 105.416 80.714C105.848 80.93 106.196 81.242 106.46 81.65V80.438H107.276ZM104.048 85.754C104.504 85.754 104.916 85.658 105.284 85.466C105.652 85.266 105.936 84.99 106.136 84.638C106.344 84.286 106.448 83.886 106.448 83.438C106.448 82.99 106.344 82.594 106.136 82.25C105.936 81.898 105.652 81.626 105.284 81.434C104.924 81.234 104.512 81.134 104.048 81.134C103.592 81.134 103.18 81.23 102.812 81.422C102.452 81.614 102.168 81.886 101.96 82.238C101.76 82.59 101.66 82.99 101.66 83.438C101.66 83.886 101.76 84.286 101.96 84.638C102.168 84.99 102.452 85.266 102.812 85.466C103.18 85.658 103.592 85.754 104.048 85.754ZM112.239 86.81C111.631 86.81 111.083 86.674 110.595 86.402C110.107 86.122 109.723 85.738 109.443 85.25C109.163 84.762 109.023 84.21 109.023 83.594C109.023 82.978 109.163 82.426 109.443 81.938C109.723 81.45 110.107 81.07 110.595 80.798C111.083 80.526 111.631 80.39 112.239 80.39C112.847 80.39 113.395 80.526 113.883 80.798C114.371 81.07 114.751 81.45 115.023 81.938C115.303 82.426 115.443 82.978 115.443 83.594C115.443 84.21 115.303 84.762 115.023 85.25C114.751 85.738 114.371 86.122 113.883 86.402C113.395 86.674 112.847 86.81 112.239 86.81ZM112.239 86.054C112.687 86.054 113.087 85.954 113.439 85.754C113.799 85.546 114.079 85.254 114.279 84.878C114.479 84.502 114.579 84.074 114.579 83.594C114.579 83.114 114.479 82.686 114.279 82.31C114.079 81.934 113.799 81.646 113.439 81.446C113.087 81.238 112.687 81.134 112.239 81.134C111.791 81.134 111.387 81.238 111.027 81.446C110.675 81.646 110.395 81.934 110.187 82.31C109.987 82.686 109.887 83.114 109.887 83.594C109.887 84.074 109.987 84.502 110.187 84.878C110.395 85.254 110.675 85.546 111.027 85.754C111.387 85.954 111.791 86.054 112.239 86.054ZM113.091 77.966H114.231L112.287 79.454H111.447L113.091 77.966ZM119.798 86.81C119.174 86.81 118.614 86.674 118.118 86.402C117.63 86.13 117.246 85.75 116.966 85.262C116.686 84.766 116.546 84.21 116.546 83.594C116.546 82.978 116.686 82.426 116.966 81.938C117.246 81.45 117.63 81.07 118.118 80.798C118.614 80.526 119.174 80.39 119.798 80.39C120.342 80.39 120.826 80.498 121.25 80.714C121.682 80.922 122.022 81.23 122.27 81.638L121.634 82.07C121.426 81.758 121.162 81.526 120.842 81.374C120.522 81.214 120.174 81.134 119.798 81.134C119.342 81.134 118.93 81.238 118.562 81.446C118.202 81.646 117.918 81.934 117.71 82.31C117.51 82.686 117.41 83.114 117.41 83.594C117.41 84.082 117.51 84.514 117.71 84.89C117.918 85.258 118.202 85.546 118.562 85.754C118.93 85.954 119.342 86.054 119.798 86.054C120.174 86.054 120.522 85.978 120.842 85.826C121.162 85.674 121.426 85.442 121.634 85.13L122.27 85.562C122.022 85.97 121.682 86.282 121.25 86.498C120.818 86.706 120.334 86.81 119.798 86.81ZM123.944 80.438H124.796V86.75H123.944V80.438ZM124.376 79.058C124.2 79.058 124.052 78.998 123.932 78.878C123.812 78.758 123.752 78.614 123.752 78.446C123.752 78.286 123.812 78.146 123.932 78.026C124.052 77.906 124.2 77.846 124.376 77.846C124.552 77.846 124.7 77.906 124.82 78.026C124.94 78.138 125 78.274 125 78.434C125 78.61 124.94 78.758 124.82 78.878C124.7 78.998 124.552 79.058 124.376 79.058ZM129.747 86.81C129.139 86.81 128.591 86.674 128.103 86.402C127.615 86.122 127.231 85.738 126.951 85.25C126.671 84.762 126.531 84.21 126.531 83.594C126.531 82.978 126.671 82.426 126.951 81.938C127.231 81.45 127.615 81.07 128.103 80.798C128.591 80.526 129.139 80.39 129.747 80.39C130.355 80.39 130.903 80.526 131.391 80.798C131.879 81.07 132.259 81.45 132.531 81.938C132.811 82.426 132.951 82.978 132.951 83.594C132.951 84.21 132.811 84.762 132.531 85.25C132.259 85.738 131.879 86.122 131.391 86.402C130.903 86.674 130.355 86.81 129.747 86.81ZM129.747 86.054C130.195 86.054 130.595 85.954 130.947 85.754C131.307 85.546 131.587 85.254 131.787 84.878C131.987 84.502 132.087 84.074 132.087 83.594C132.087 83.114 131.987 82.686 131.787 82.31C131.587 81.934 131.307 81.646 130.947 81.446C130.595 81.238 130.195 81.134 129.747 81.134C129.299 81.134 128.895 81.238 128.535 81.446C128.183 81.646 127.903 81.934 127.695 82.31C127.495 82.686 127.395 83.114 127.395 83.594C127.395 84.074 127.495 84.502 127.695 84.878C127.903 85.254 128.183 85.546 128.535 85.754C128.895 85.954 129.299 86.054 129.747 86.054ZM136.382 86.81C135.87 86.81 135.378 86.738 134.906 86.594C134.442 86.442 134.078 86.254 133.814 86.03L134.198 85.358C134.462 85.566 134.794 85.738 135.194 85.874C135.594 86.002 136.01 86.066 136.442 86.066C137.018 86.066 137.442 85.978 137.714 85.802C137.994 85.618 138.134 85.362 138.134 85.034C138.134 84.802 138.058 84.622 137.906 84.494C137.754 84.358 137.562 84.258 137.33 84.194C137.098 84.122 136.79 84.054 136.406 83.99C135.894 83.894 135.482 83.798 135.17 83.702C134.858 83.598 134.59 83.426 134.366 83.186C134.15 82.946 134.042 82.614 134.042 82.19C134.042 81.662 134.262 81.23 134.702 80.894C135.142 80.558 135.754 80.39 136.538 80.39C136.946 80.39 137.354 80.446 137.762 80.558C138.17 80.662 138.506 80.802 138.77 80.978L138.398 81.662C137.878 81.302 137.258 81.122 136.538 81.122C135.994 81.122 135.582 81.218 135.302 81.41C135.03 81.602 134.894 81.854 134.894 82.166C134.894 82.406 134.97 82.598 135.122 82.742C135.282 82.886 135.478 82.994 135.71 83.066C135.942 83.13 136.262 83.198 136.67 83.27C137.174 83.366 137.578 83.462 137.882 83.558C138.186 83.654 138.446 83.818 138.662 84.05C138.878 84.282 138.986 84.602 138.986 85.01C138.986 85.562 138.754 86.002 138.29 86.33C137.834 86.65 137.198 86.81 136.382 86.81Z" fill="#4E4E4E"/>
</svg>
